<mxfile host="app.diagrams.net" modified="2023-09-14T00:33:22.339Z" agent="Mozilla/5.0 (Windows NT 10.0; Win64; x64) AppleWebKit/537.36 (KHTML, like Gecko) Chrome/116.0.0.0 Safari/537.36" etag="Z9OX1LvFpCwz9Bfq5Eps" version="21.7.5" type="device">
  <diagram name="Página-1" id="B_yo6HsyKE88OH-Ub2m0">
    <mxGraphModel dx="934" dy="864" grid="1" gridSize="10" guides="1" tooltips="1" connect="1" arrows="1" fold="1" page="1" pageScale="1" pageWidth="827" pageHeight="1169" math="0" shadow="0">
      <root>
        <mxCell id="0" />
        <mxCell id="1" parent="0" />
        <mxCell id="trbm8egBXo1unkFS9hvB-1" value="Cliente&lt;br&gt;" style="shape=umlActor;verticalLabelPosition=bottom;verticalAlign=top;html=1;outlineConnect=0;" vertex="1" parent="1">
          <mxGeometry x="20" y="160" width="50" height="100" as="geometry" />
        </mxCell>
        <mxCell id="trbm8egBXo1unkFS9hvB-2" value="&lt;font style=&quot;font-size: 18px;&quot;&gt;Avaliar&lt;br&gt;&amp;nbsp;artigos&lt;/font&gt;" style="ellipse;whiteSpace=wrap;html=1;" vertex="1" parent="1">
          <mxGeometry x="310" width="120" height="80" as="geometry" />
        </mxCell>
        <mxCell id="trbm8egBXo1unkFS9hvB-3" value="" style="ellipse;whiteSpace=wrap;html=1;" vertex="1" parent="1">
          <mxGeometry x="200" y="170" width="120" height="80" as="geometry" />
        </mxCell>
        <mxCell id="trbm8egBXo1unkFS9hvB-4" value="Designar membros&lt;br&gt;do comitê" style="ellipse;whiteSpace=wrap;html=1;" vertex="1" parent="1">
          <mxGeometry x="510" y="180" width="150" height="80" as="geometry" />
        </mxCell>
        <mxCell id="trbm8egBXo1unkFS9hvB-5" value="" style="ellipse;whiteSpace=wrap;html=1;" vertex="1" parent="1">
          <mxGeometry x="390" y="310" width="130" height="80" as="geometry" />
        </mxCell>
        <mxCell id="trbm8egBXo1unkFS9hvB-6" value="Organizar os&lt;br&gt;Eventos da Revista" style="ellipse;whiteSpace=wrap;html=1;" vertex="1" parent="1">
          <mxGeometry x="480" y="90" width="120" height="80" as="geometry" />
        </mxCell>
        <mxCell id="trbm8egBXo1unkFS9hvB-11" value="Coordenador" style="shape=umlActor;verticalLabelPosition=bottom;verticalAlign=top;html=1;outlineConnect=0;" vertex="1" parent="1">
          <mxGeometry x="730" y="40" width="50" height="100" as="geometry" />
        </mxCell>
        <mxCell id="trbm8egBXo1unkFS9hvB-24" style="edgeStyle=orthogonalEdgeStyle;rounded=0;orthogonalLoop=1;jettySize=auto;html=1;exitX=0.5;exitY=0.5;exitDx=0;exitDy=0;exitPerimeter=0;fontFamily=Helvetica;fontSize=12;fontColor=default;" edge="1" parent="1" source="trbm8egBXo1unkFS9hvB-12">
          <mxGeometry relative="1" as="geometry">
            <mxPoint x="500" y="460" as="targetPoint" />
          </mxGeometry>
        </mxCell>
        <mxCell id="trbm8egBXo1unkFS9hvB-12" value="Editor" style="shape=umlActor;verticalLabelPosition=bottom;verticalAlign=top;html=1;outlineConnect=0;" vertex="1" parent="1">
          <mxGeometry x="530" y="480" width="50" height="100" as="geometry" />
        </mxCell>
        <mxCell id="trbm8egBXo1unkFS9hvB-13" value="&lt;font style=&quot;font-size: 17px;&quot;&gt;Fazer&lt;br&gt;Relatórios&lt;/font&gt;" style="ellipse;whiteSpace=wrap;html=1;" vertex="1" parent="1">
          <mxGeometry x="560" y="320" width="150" height="80" as="geometry" />
        </mxCell>
        <mxCell id="trbm8egBXo1unkFS9hvB-23" value="" style="endArrow=classic;html=1;rounded=0;fontFamily=Helvetica;fontSize=12;fontColor=default;entryX=0;entryY=1;entryDx=0;entryDy=0;" edge="1" parent="1" source="trbm8egBXo1unkFS9hvB-5" target="trbm8egBXo1unkFS9hvB-13">
          <mxGeometry width="50" height="50" relative="1" as="geometry">
            <mxPoint x="530" y="480" as="sourcePoint" />
            <mxPoint x="580" y="430" as="targetPoint" />
            <Array as="points">
              <mxPoint x="500" y="460" />
            </Array>
          </mxGeometry>
        </mxCell>
        <mxCell id="trbm8egBXo1unkFS9hvB-27" value="" style="endArrow=classic;html=1;rounded=0;fontFamily=Helvetica;fontSize=12;fontColor=default;exitX=0.734;exitY=0.068;exitDx=0;exitDy=0;exitPerimeter=0;entryX=0.967;entryY=0.363;entryDx=0;entryDy=0;entryPerimeter=0;" edge="1" parent="1" source="trbm8egBXo1unkFS9hvB-4" target="trbm8egBXo1unkFS9hvB-6">
          <mxGeometry width="50" height="50" relative="1" as="geometry">
            <mxPoint x="606" y="189" as="sourcePoint" />
            <mxPoint x="660" y="110" as="targetPoint" />
            <Array as="points">
              <mxPoint x="750" y="110" />
            </Array>
          </mxGeometry>
        </mxCell>
        <mxCell id="trbm8egBXo1unkFS9hvB-29" value="" style="endArrow=classic;html=1;rounded=0;fontFamily=Helvetica;fontSize=12;fontColor=default;exitX=0.667;exitY=0;exitDx=0;exitDy=0;exitPerimeter=0;" edge="1" parent="1" source="trbm8egBXo1unkFS9hvB-13" target="trbm8egBXo1unkFS9hvB-11">
          <mxGeometry width="50" height="50" relative="1" as="geometry">
            <mxPoint x="630" y="340" as="sourcePoint" />
            <mxPoint x="650" y="110" as="targetPoint" />
            <Array as="points" />
          </mxGeometry>
        </mxCell>
        <mxCell id="trbm8egBXo1unkFS9hvB-31" value="" style="endArrow=classic;startArrow=classic;html=1;rounded=0;fontFamily=Helvetica;fontSize=12;fontColor=default;entryX=1;entryY=0.3333333333333333;entryDx=0;entryDy=0;entryPerimeter=0;" edge="1" parent="1" target="trbm8egBXo1unkFS9hvB-1">
          <mxGeometry width="50" height="50" relative="1" as="geometry">
            <mxPoint x="500" y="470" as="sourcePoint" />
            <mxPoint x="190" y="210" as="targetPoint" />
            <Array as="points">
              <mxPoint x="250" y="380" />
            </Array>
          </mxGeometry>
        </mxCell>
        <mxCell id="trbm8egBXo1unkFS9hvB-32" value="&lt;font style=&quot;font-size: 16px;&quot;&gt;Realizar&amp;nbsp;&lt;br&gt;Cadastros&lt;/font&gt;" style="ellipse;whiteSpace=wrap;html=1;strokeColor=default;fontFamily=Helvetica;fontSize=12;fontColor=default;fillColor=default;" vertex="1" parent="1">
          <mxGeometry x="160" y="360" width="140" height="80" as="geometry" />
        </mxCell>
        <mxCell id="trbm8egBXo1unkFS9hvB-34" value="" style="endArrow=classic;html=1;rounded=0;fontFamily=Helvetica;fontSize=12;fontColor=default;" edge="1" parent="1" source="trbm8egBXo1unkFS9hvB-2" target="trbm8egBXo1unkFS9hvB-11">
          <mxGeometry width="50" height="50" relative="1" as="geometry">
            <mxPoint x="580" y="80" as="sourcePoint" />
            <mxPoint x="700" y="80" as="targetPoint" />
          </mxGeometry>
        </mxCell>
        <mxCell id="trbm8egBXo1unkFS9hvB-37" value="" style="endArrow=classic;startArrow=classic;html=1;rounded=0;fontFamily=Helvetica;fontSize=12;fontColor=default;entryX=0;entryY=1;entryDx=0;entryDy=0;" edge="1" parent="1" source="trbm8egBXo1unkFS9hvB-1" target="trbm8egBXo1unkFS9hvB-2">
          <mxGeometry width="50" height="50" relative="1" as="geometry">
            <mxPoint x="130" y="190" as="sourcePoint" />
            <mxPoint x="180" y="140" as="targetPoint" />
          </mxGeometry>
        </mxCell>
        <mxCell id="trbm8egBXo1unkFS9hvB-38" value="" style="endArrow=classic;html=1;rounded=0;fontFamily=Helvetica;fontSize=12;fontColor=default;entryX=0.001;entryY=0.399;entryDx=0;entryDy=0;entryPerimeter=0;exitX=1;exitY=0.3333333333333333;exitDx=0;exitDy=0;exitPerimeter=0;" edge="1" parent="1" source="trbm8egBXo1unkFS9hvB-1" target="trbm8egBXo1unkFS9hvB-3">
          <mxGeometry width="50" height="50" relative="1" as="geometry">
            <mxPoint x="110" y="235" as="sourcePoint" />
            <mxPoint x="160" y="185" as="targetPoint" />
          </mxGeometry>
        </mxCell>
      </root>
    </mxGraphModel>
  </diagram>
</mxfile>





















https://docs.google.com/presentation/d/1yQqY5A-tlc3ofJSBwn7MbOPLzagnM_LncuMxjZ9nMPA/edit?usp=drivesdk